<mxfile host="app.diagrams.net" modified="2023-10-02T07:14:09.612Z" agent="Mozilla/5.0 (X11; Linux x86_64) AppleWebKit/537.36 (KHTML, like Gecko) Chrome/117.0.0.0 Safari/537.36" version="21.7.5" etag="_XnU90CvXVXu7VH6MuKu" type="github">
  <diagram name="Page-1" id="Kgi6zP7sDye5FdEg1Vd2">
    <mxGraphModel>
      <root>
        <mxCell id="0" />
        <mxCell id="1" parent="0" />
      </root>
    </mxGraphModel>
  </diagram>
</mxfile>
